<svg width="34" height="34" viewBox="0 0 34 34" fill="none" xmlns="http://www.w3.org/2000/svg">
  <path d="M0 4.25C0 1.90279 1.90279 0 4.25 0H29.75C32.0972 0 34 1.90279 34 4.25V29.75C34 32.0972 32.0972 34 29.75 34H4.25C1.90279 34 0 32.0972 0 29.75V4.25Z" fill="#007AC9"/>
  <path d="M4.25 19.7874C4.25 20.1972 4.39075 20.5434 4.67225 20.8261C4.95376 21.1087 5.30735 21.25 5.73304 21.25C6.13126 21.25 6.47112 21.1052 6.75263 20.8155C7.03413 20.5258 7.17488 20.1831 7.17488 19.7874V15.6964H10.4087C12.3175 15.6964 13.8932 15.1912 15.1359 14.1808C16.3398 13.202 16.9606 11.8419 16.9982 10.1005L17 9.8884C17 8.1785 16.437 6.81131 15.311 5.78678C14.185 4.76226 12.6676 4.25 10.7589 4.25H5.73304C5.30735 4.25 4.95376 4.39484 4.67225 4.68454C4.39075 4.97423 4.25 5.33105 4.25 5.75499V19.7874ZM7.17488 13.0468V6.98441H10.4911C11.5897 6.98441 12.4582 7.23524 13.0967 7.73691C13.7075 8.21676 14.0262 8.91963 14.0527 9.84555L14.0545 10.0156C14.0545 10.9059 13.7353 11.6336 13.0967 12.1989C12.4582 12.7641 11.5897 13.0468 10.4911 13.0468H7.17488Z" fill="white"/>
  <path d="M29.904 20.9968C29.8739 20.5452 29.3922 20.2141 28.9106 20.2442L27.3451 20.5452L26.2614 18.6186C25.8098 17.7756 25.4486 17.3843 24.3648 17.2037C23.1908 17.0531 22.2274 16.9327 20.5416 16.9327C18.8257 16.9327 17.9526 17.0531 16.7786 17.2037C15.6948 17.3843 15.3336 17.7756 14.882 18.6186L13.7983 20.5452L12.2028 20.2442C11.691 20.2141 11.2394 20.5452 11.2093 20.9968C11.1491 21.4483 11.4501 21.8096 11.9017 21.93L13.0156 22.201C12.2329 22.7729 11.9017 23.8567 11.9017 24.6093V27.3789C11.9017 28.1014 12.4436 28.7336 13.2865 28.8841V30.4796C13.2865 30.7204 13.4972 30.8408 13.7381 30.8408H15.3336C15.5443 30.8408 15.755 30.7204 15.755 30.4796V29.155C17.0495 29.2152 18.7655 29.3356 20.5416 29.3356C22.2876 29.3356 24.0638 29.2152 25.3282 29.155V30.4796C25.3282 30.7204 25.5389 30.8408 25.7496 30.8408H27.3451C27.586 30.8408 27.7967 30.7204 27.7967 30.4796V28.8841C28.6697 28.7336 29.2116 28.1014 29.2116 27.3789V24.6093C29.2116 23.8567 28.9106 22.7729 28.1279 22.201L29.1815 21.93C29.6632 21.8096 29.9642 21.4483 29.904 20.9968ZM16.7485 25.1211C16.7485 25.5425 16.3872 25.8135 15.9658 25.8135H14.2799C13.8585 25.8135 13.4671 25.5425 13.4671 25.1211V24.2781L16.7485 24.6093V25.1211ZM15.8454 19.0099C16.0862 18.4981 16.3571 18.2874 16.899 18.167C17.9526 17.9563 18.8859 17.8961 20.5416 17.8961C22.1973 17.8961 23.1908 17.9563 24.2444 18.167C24.7863 18.2874 25.0572 18.4981 25.2981 19.0099L26.6829 21.8397C24.696 22.1407 22.6489 22.201 20.662 22.201C18.5547 22.201 16.2668 22.0805 14.4606 21.8397L15.8454 19.0099ZM27.7064 25.1211C27.7064 25.5425 27.315 25.8135 26.8936 25.8135H25.268C24.8465 25.8135 24.4853 25.5425 24.4853 25.1211V24.6093L27.7064 24.2781V25.1211Z" fill="white"/>
</svg>
